<?xml version="1.0" encoding="UTF-8" standalone="no"?>
<svg
   width="28"
   height="28"
   viewBox="0 0 28 28"
   class="video-coin-icon video-toolbar-item-icon"
   data-v-bb2825e0=""
   version="1.1"
   id="svg1"
   sodipodi:docname="coin.svg"
   inkscape:version="1.4 (86a8ad7, 2024-10-11)"
   xmlns:inkscape="http://www.inkscape.org/namespaces/inkscape"
   xmlns:sodipodi="http://sodipodi.sourceforge.net/DTD/sodipodi-0.dtd"
   xmlns="http://www.w3.org/2000/svg"
   xmlns:svg="http://www.w3.org/2000/svg">
  <defs
     id="defs1" />
  <sodipodi:namedview
     id="namedview1"
     pagecolor="#ffffff"
     bordercolor="#000000"
     borderopacity="0.25"
     inkscape:showpageshadow="2"
     inkscape:pageopacity="0.0"
     inkscape:pagecheckerboard="0"
     inkscape:deskcolor="#d1d1d1"
     inkscape:zoom="18.334269"
     inkscape:cx="17.371841"
     inkscape:cy="20.671673"
     inkscape:window-width="1560"
     inkscape:window-height="970"
     inkscape:window-x="-6"
     inkscape:window-y="-6"
     inkscape:window-maximized="1"
     inkscape:current-layer="svg1" />
  <path
     style="fill:none;stroke:#000000;stroke-width:0.5;stroke-dasharray:none"
     d="m 14.045,25.5454 c 6.337181,0 11.5,-5.162297 11.5,-11.5 0,-6.35127 -5.1487,-11.49999 -11.5,-11.49999 -6.35123,0 -11.49996,5.14872 -11.49996,11.49999 0,6.3513 5.14873,11.5 11.49996,11.5 l -9e-4,-4.0821 c -0.5004,0 -0.9059,-0.4056 -0.9059,-0.9059 V 12.1022 C 11.1,12.2535 9.52148,13.9478 9.51448,15.9916 v 1.2079 c -8e-5,0.5002 -0.40565,0.9057 -0.90592,0.9057 -0.50026,0 -0.90583,-0.4055 -0.90591,-0.9057 V 15.9916 C 7.71158,12.9487 10.0992,10.4444 13.1382,10.2903 V 8.62807 H 9.66202 c -0.54893,0 -0.99393,-0.40559 -0.99393,-0.90591 0,-0.50033 0.445,-0.90592 0.99393,-0.90592 h 8.61408 c 0.5489,0 0.9939,0.40559 0.9939,0.90592 0,0.50032 -0.445,0.90591 -0.9939,0.90591 H 14.95 v 1.66223 c 3.039,0.1541 5.4266,2.6584 5.4355,5.7013 v 1.2079 c -10e-5,0.5002 -0.4056,0.9057 -0.9059,0.9057 -0.5003,0 -0.9058,-0.4055 -0.9059,-0.9057 V 15.9916 C 18.5667,13.9478 16.9882,12.2535 14.95,12.1022 v 8.4552 c 0,0.5003 -0.4056,0.9059 -0.9059,0.9059 z"
     id="path1"
     sodipodi:nodetypes="csssccscccsccccssssssccccscccscc" />
</svg>
