<?xml version="1.0" encoding="UTF-8" standalone="no"?>
<!-- Created with Inkscape (http://www.inkscape.org/) -->

<svg
   width="13.090867mm"
   height="18.293932mm"
   viewBox="0 0 13.090867 18.293932"
   version="1.1"
   id="svg1"
   inkscape:export-filename="位图.svg"
   inkscape:export-xdpi="96"
   inkscape:export-ydpi="96"
   inkscape:version="1.4 (86a8ad7, 2024-10-11)"
   sodipodi:docname="cxk.svg"
   xmlns:inkscape="http://www.inkscape.org/namespaces/inkscape"
   xmlns:sodipodi="http://sodipodi.sourceforge.net/DTD/sodipodi-0.dtd"
   xmlns="http://www.w3.org/2000/svg"
   xmlns:svg="http://www.w3.org/2000/svg">
  <sodipodi:namedview
     id="namedview1"
     pagecolor="#ffffff"
     bordercolor="#000000"
     borderopacity="0.25"
     inkscape:showpageshadow="2"
     inkscape:pageopacity="0.0"
     inkscape:pagecheckerboard="0"
     inkscape:deskcolor="#d1d1d1"
     inkscape:document-units="mm"
     inkscape:zoom="8"
     inkscape:cx="10.375"
     inkscape:cy="36.75"
     inkscape:window-width="1560"
     inkscape:window-height="970"
     inkscape:window-x="-6"
     inkscape:window-y="-6"
     inkscape:window-maximized="1"
     inkscape:current-layer="layer1" />
  <defs
     id="defs1">
    <clipPath
       id="clip0">
      <rect
         x="693"
         y="65"
         width="290"
         height="445"
         id="rect1" />
    </clipPath>
  </defs>
  <g
     inkscape:label="图层 1"
     inkscape:groupmode="layer"
     id="layer1"
     transform="translate(-0.39535773,-0.4460071)">
    <g
       clip-path="url(#clip0)"
       transform="matrix(0.04514092,0,0,0.04110996,-30.8873,-2.2261403)"
       id="g1"
       style="fill:none;stroke:#000000;stroke-width:3.07096;stroke-dasharray:none">
      <path
         d="m 785.225,198.75 c 3.16406,8.46439 6.97828,-14.33522 12.372,-17.122 -4.61161,-5.86048 2.60334,-14.05664 -2.874,-18.371 -6.39033,11.88957 -6.18044,22.99995 -9.498,35.493 l -1.31713,38.21075 c -10.02669,-12.50074 -20.57118,-25.87873 -31.55573,-35.90408 -4.39386,-16.15389 10.1018,-29.07882 15.28586,-43.46167 13.13898,-12.66522 15.94344,-31.57575 29.736,-43.45 12.33786,-13.27424 32.28406,-7.31721 45.885,-2.464 -11.12483,-12.42875 0.88575,-28.702943 2.05225,-38.696425 6.90522,-7.5208 18.21797,-7.373988 27.61475,-7.964275 3.0675,3.932048 17.18179,1.630231 21.99391,10.211343 19.05533,2.039175 12.92074,25.543227 14.89909,38.409357 -9.38259,0.50106 -9.65457,-21.781388 -10.84816,-4.32617 -0.0907,16.84903 -20.4366,24.64416 -8.46582,39.33648 8.71837,12.93456 17.77242,27.56525 13.70267,43.85219 7.20586,12.7034 15.47733,31.43038 6.41431,45.4035 3.05592,15.22916 -5.06314,32.84337 -23.178,27.439 1.53369,17.64454 14.1647,28.28721 23.249,43.383 -3.58781,17.90363 13.70405,32.05426 12.997,48.241 6.63559,13.99315 12.74641,20.94333 17.00574,35.329 7.57372,24.22612 10.53879,49.64546 15.23626,74.525 2.68777,14.49916 11.04276,32.76435 26.3995,39.99275 -9.91321,2.64183 -37.12999,6.2984 -45.59,-1.60137 1.0124,-11.66577 9.26806,-22.94464 -0.736,-32.3836 -4.93755,-20.47801 -19.77985,-36.99453 -23.26964,-58.06869 -3.80303,-15.83981 -10.60582,-29.89802 -23.52174,-40.05434 C 881.07734,359.72951 867.28513,348.24349 860.206,331.6 c -12.86154,-11.4301 -28.27962,-24.65442 -41.31061,-5.3925 -13.28214,9.90182 -24.84951,22.26793 -35.22869,35.01572 -3.89519,13.81737 -25.56203,20.77511 -20.64708,34.00528 -5.80204,13.68701 -2.18183,32.66352 -9.013,47.42087 -7.2359,11.83165 -6.34743,25.26884 -12.21625,35.30538 -1.63887,12.59045 16.26146,36.41183 -8.021,31.43175 -11.10078,-0.47911 -34.81207,3.52281 -39.14637,-1.8195 11.49635,-10.13126 28.14832,-18.52407 28.743,-37.493 -1.86193,-16.8664 2.63272,-36.8761 2.69133,-54.91525 0.77225,-29.16872 9.69725,-57.17394 22.08329,-83.348 9.28735,-22.76504 23.81636,-42.76885 35.58438,-64.19875 -0.6114,-10.41591 14.60038,-22.09571 0.18287,-30.65125 z"
         fill-rule="evenodd"
         id="path1"
         style="fill:none;stroke:#000000;stroke-width:3.07096;stroke-dasharray:none"
         sodipodi:nodetypes="ccccccccccccccccccccccccccccccccccccccccc" />
    </g>
  </g>
</svg>
