<?xml version="1.0" encoding="UTF-8" standalone="no"?>
<!-- Created with Inkscape (http://www.inkscape.org/) -->

<svg
   version="1.1"
   id="svg1"
   width="513.21509"
   height="513.21509"
   viewBox="0 0 513.21509 513.21509"
   sodipodi:docname="cross.svg"
   inkscape:version="1.4 (86a8ad7, 2024-10-11)"
   xmlns:inkscape="http://www.inkscape.org/namespaces/inkscape"
   xmlns:sodipodi="http://sodipodi.sourceforge.net/DTD/sodipodi-0.dtd"
   xmlns="http://www.w3.org/2000/svg"
   xmlns:svg="http://www.w3.org/2000/svg">
  <defs
     id="defs1" />
  <sodipodi:namedview
     id="namedview1"
     pagecolor="#ffffff"
     bordercolor="#000000"
     borderopacity="0.25"
     inkscape:showpageshadow="2"
     inkscape:pageopacity="0.0"
     inkscape:pagecheckerboard="0"
     inkscape:deskcolor="#d1d1d1"
     inkscape:zoom="0.70898438"
     inkscape:cx="320.88154"
     inkscape:cy="205.92837"
     inkscape:window-width="1560"
     inkscape:window-height="970"
     inkscape:window-x="-6"
     inkscape:window-y="-6"
     inkscape:window-maximized="1"
     inkscape:current-layer="g1" />
  <g
     inkscape:groupmode="layer"
     inkscape:label="Image"
     id="g1"
     transform="translate(-277.25492,-145.37558)">
    <path
       id="rect1"
       style="fill:#fc6255;fill-opacity:1;stroke:#808080;stroke-width:0;stroke-linecap:round;stroke-linejoin:round;stroke-dasharray:none;paint-order:stroke fill markers"
       d="m 386.7521,145.37667 c -13.70062,0 -27.40031,5.24797 -37.89843,15.74609 l -55.85157,55.85157 c -20.99625,20.99624 -20.99624,54.80258 1e-5,75.79883 L 402.21109,401.9841 293.00211,511.19308 c -20.99625,20.99625 -20.99626,54.80258 -1e-5,75.79883 l 55.85157,55.85156 c 20.99625,20.99625 54.80258,20.99624 75.79882,-10e-6 L 533.86343,533.63253 643.07242,642.84347 c 20.99626,20.99626 54.8026,20.99627 75.79885,2e-5 l 55.85156,-55.85156 c 20.99625,-20.99625 20.99624,-54.80259 -2e-5,-75.79885 L 665.51187,401.98409 774.7228,292.77315 c 20.99625,-20.99624 20.99626,-54.80257 10e-6,-75.79882 l -55.85156,-55.85157 c -20.99625,-20.99625 -54.80258,-20.99624 -75.79883,1e-5 L 533.86344,270.33175 424.6525,161.12277 c -10.49813,-10.49813 -24.19977,-15.7461 -37.9004,-15.7461 z" />
  </g>
</svg>
