<?xml version="1.0" encoding="iso-8859-1"?>
<!-- Uploaded to: SVG Repo, www.svgrepo.com, Generator: SVG Repo Mixer Tools -->
<svg height="800px" width="800px" version="1.1" id="Layer_1" xmlns="http://www.w3.org/2000/svg" xmlns:xlink="http://www.w3.org/1999/xlink" 
	 viewBox="0 0 511.302 511.302" xml:space="preserve">
<g>
	<path style="fill:#66BB6A;" d="M94.651,404.502c-3.6-6.4,0.4-16.4-2.4-23.2c-2.8-6.8-12.8-10.8-15.2-17.6
		c-2.4-6.8,3.6-16.4,1.6-23.6c-1.6-7.2-10.8-12.8-12-20s6-15.6,5.6-22.8c-0.4-7.2-8.8-14.4-8.8-21.6c0-7.6,8.4-14.4,8.8-21.6
		c0.4-7.2-6.4-15.6-5.6-22.8c1.2-7.2,10.4-13.2,12-20c1.6-7.2-4-16.4-1.6-23.6s12.4-11.2,15.2-18s-1.2-16.8,2.4-23.2
		c3.6-6.4,14-8.8,18-14.8s2-16.8,6.8-22.4s15.6-6,20.8-11.2s5.6-16,11.2-20.8c5.6-4.4,16.4-2.4,22.4-6c6.4-4,9.2-14.4,15.6-17.2
		c0.4,0,0.8-0.4,1.2-0.4c5.2-1.6,12,0.8,18,0.8v3.2c-4,0-7.6,0-10.4,2c-5.2,3.6-4.8,14-9.6,18.8c-4.4,4.4-14.8,4-18.8,9.6
		c-4,5.2-1.2,14.8-4.4,20.8c-3.2,5.6-13.6,7.2-16.4,13.2c-2.8,5.6,1.6,15.2-0.8,21.2c-2.4,6-12.4,9.2-14.4,15.6
		c-2,6,3.6,14.8,2,21.2c-1.6,6.4-10.8,10.8-12.4,17.2c-1.2,6.4,5.6,14,4.4,20.8c-0.8,6.4-9.6,12-10.4,18.4c-0.8,6.4,6.8,13.6,6.4,20
		c-0.4,6.4-8.4,12.8-8.4,19.6s8,12.8,8.4,19.6c0.4,6.4-7.2,13.6-6.4,20s9.6,12,10.4,18.4c1.2,6.4-5.6,14.4-4.4,20.8
		c1.2,6.4,10.8,10.8,12.4,17.2c1.6,6.4-4,14.8-2,21.2c2,6.4,12,9.6,14.4,15.6s-2,15.6,0.8,21.2c3.2,6,13.2,7.6,16.4,13.2
		c3.6,5.6,0.8,15.6,4.4,20.8c4,5.2,14.4,4.8,18.8,9.6c4.8,4.8,4.4,15.2,9.6,18.8c2.8,2,6.4,2,10.4,2v3.2c-6.4,0-14,2.8-19.2,0.4
		c-6.8-2.8-9.6-13.6-15.6-17.2c-6.4-4-16.8-1.6-22.8-6c-5.6-4.4-6-15.6-11.2-20.8c-5.2-5.2-16-5.2-20.8-11.2
		c-4.4-5.6-2.4-16.4-6.4-22.4C108.651,413.302,98.251,410.902,94.651,404.502z"/>
	<path style="fill:#66BB6A;" d="M123.851,255.702c0.4-6.4-7.2-13.6-6.4-20s9.6-12,10.4-18.4c1.2-6.4-5.6-14.4-4.4-20.8
		c1.2-6.4,10.8-10.8,12.4-17.2c1.6-6.4-4-15.2-2-21.2c2-6.4,12-9.6,14.4-15.6s-2-15.6,0.8-21.2c3.2-6,13.2-7.6,16.4-13.2
		c3.6-5.6,0.8-15.6,4.8-20.8c4-5.2,14.4-4.8,18.8-9.6c4.8-4.8,4.4-15.2,9.6-18.8c2.8-2,6.4-2,10.4-2c3.6,0,7.6,0,10.4-1.2
		c4.4-2,7.2-7.6,10.8-11.2l0,0l6.8,1.2c-4,2.8-2.4,12.8-6.4,17.6c-3.2,4-12.8,4.8-15.6,10.4c-2.4,4.8,2.4,13.2,0,18.8
		c-2,5.2-11.6,7.6-13.2,13.2c-1.6,5.2,4.4,12.8,2.8,18.4c-1.6,5.2-10.4,8.8-11.6,14.8c-1.2,5.6,5.6,12.4,4.4,18.4
		c-1.2,5.6-10,9.6-10.8,15.6c-0.8,5.6,6.4,12.4,5.6,18c-0.8,5.6-9.2,10.4-9.6,16c-0.4,5.6,6.8,12,6.8,17.6
		c-0.4,5.6-8.8,10.8-9.2,16.4s7.6,11.6,7.6,17.2c0,5.6-8,11.2-8,16.8c0,5.6,8,11.2,8,17.2c0,5.6-7.6,11.6-7.6,17.2
		c0.4,5.6,8.4,10.8,9.2,16.4c0.4,5.6-7.2,12-6.8,17.6s9.2,10.4,9.6,16c0.8,5.6-6.4,12.4-5.6,18c0.8,5.6,9.6,10,10.8,15.6
		s-5.6,12.8-4.4,18.4c1.2,5.6,10.4,9.2,12,14.8c1.6,5.6-4.4,13.2-2.8,18.4c2,5.6,11.2,8.4,13.2,13.2c2.4,5.6-2.8,14,0,18.8
		c2.8,5.6,12.4,6,15.6,10.4c3.6,5.2,2.4,14.8,6.4,17.6l-6.8,1.2c-3.6-3.6-6.8-9.2-10.8-11.2c-2.8-1.6-6.8-1.2-10.4-1.2
		c-4,0-7.6,0-10.4-2c-5.2-4-4.8-14-9.6-18.8c-4.4-4.4-14.8-4-18.8-9.6c-4-5.2-1.2-14.8-4.4-20.8c-3.2-5.2-13.6-7.2-16.4-13.2
		c-2.8-5.6,1.6-15.2-0.8-21.2c-2.4-6-12.4-9.2-14.4-15.6c-2-6,3.6-14.8,2-21.2c-1.6-6.4-11.2-10.8-12.4-17.2
		c-1.2-6.4,5.2-14,4.4-20.8c-0.8-6.4-9.6-12-10.4-18.4c-0.8-6.4,6.8-13.6,6.4-20c-0.4-6.4-8.4-12.8-8.4-19.6
		S123.851,262.102,123.851,255.702z"/>
	<path style="fill:#66BB6A;" d="M359.451,76.902c-6-4.8-16.4-2.4-22.4-6c-6.4-4-9.2-14.4-15.6-17.2c-0.4,0-0.8-0.4-1.2-0.4v-0.4
		c96.8,28,167.2,117.2,167.2,222.8c0,117.6-87.6,214.8-201.2,230c3.6-3.2,7.2-6.8,11.6-8c0.8-0.4,2-0.4,3.2-0.4
		c6.4-0.4,14.4,2.8,20.4,0.4c6.8-3.2,9.6-13.6,15.6-17.2c6.4-4,16.8-1.6,22.4-6c5.6-4.4,6-15.6,11.2-20.8c5.2-5.2,16-5.2,20.8-11.2
		c4.4-5.6,2.4-16.4,6.4-22.4s14.8-8.4,18-14.8c3.6-6.4-0.8-16.4,2.4-23.2c2.8-6.8,12.8-10.8,15.2-18c2.4-6.8-3.6-16-1.6-23.6
		c1.6-7.2,10.8-12.8,12-20s-6-15.6-5.6-22.8c0.4-7.2,8.8-14.4,8.8-21.6c0-7.6-8.4-14.4-8.8-21.6c-0.4-7.6,6.4-15.6,5.6-22.8
		c-1.2-7.2-10.4-13.2-12-20c-1.6-7.2,4-16.4,1.6-23.2c-2.4-7.2-12.4-11.2-15.2-18s1.2-16.8-2.4-23.2c-3.6-6.4-14-8.8-18-14.8
		s-2-16.8-6.4-22.4c-4.8-5.6-15.6-6-20.8-11.2C365.451,92.102,365.451,81.302,359.451,76.902z"/>
	<path style="fill:#66BB6A;" d="M398.251,130.902c4,6,14.4,8.4,18,14.8s-0.8,16.4,2.4,23.2c2.8,6.8,12.8,10.8,15.2,18
		c2.4,6.8-3.6,16-1.6,23.6c1.6,7.2,10.8,12.8,12,20s-6,15.6-5.6,22.8c0.4,7.2,8.8,14.4,8.8,21.6c0,7.6-8.4,14.4-8.8,21.6
		c-0.4,7.6,6.4,15.6,5.6,22.8c-1.2,7.2-10.4,13.2-12,20c-1.6,7.2,4,16.4,1.6,23.6s-12.4,11.2-15.2,18s1.2,16.8-2.4,23.2
		c-3.6,6.4-14,8.8-18,14.8c-4,6.4-2,16.8-6.4,22.4c-4.8,5.6-15.6,6-20.8,11.2s-5.6,16-11.2,20.8c-5.6,4.4-16.4,2.4-22.4,6
		c-6.4,4-9.2,14.4-15.6,17.2c-5.6,2.4-13.6-0.8-20.4-0.4v-3.2c4.4,0,8.4,0,11.6-2c5.2-3.6,4.8-14,9.6-18.8c4.4-4.4,14.8-4,18.8-9.6
		c4-5.2,1.2-14.8,4.8-20.8c3.2-5.6,13.6-7.2,16.4-13.2c2.8-5.6-1.6-14.8,0.8-21.2c2.4-6,12.4-9.2,14.4-15.6c2-6-3.6-14.8-2-21.2
		c1.6-6,11.2-10.8,12.4-17.2c1.2-6.4-5.2-14-4.4-20.8c0.8-6.4,9.6-12,10.4-18.4c0.8-6.4-6.8-13.6-6.4-20c0.4-6.4,8.4-12.8,8.4-19.2
		s-8-12.8-8.4-19.6c-0.4-6.4,7.2-13.6,6.4-20c-0.8-6.8-9.2-12-10.4-18.4s5.6-14.4,4.4-20.8c-1.2-6.4-10.8-11.2-12.4-17.2
		c-1.6-6.4,4-15.2,2-21.2c-2-6.4-12-9.6-14.4-15.6s2-15.6-0.8-21.2c-3.2-6-13.2-7.6-16.4-13.2c-3.6-5.6-0.8-15.6-4.8-20.8
		c-4-5.2-14.4-5.2-18.8-9.6c-4.8-4.8-4.4-15.2-9.6-18.8c-2.8-2-6.4-2-10.4-2v-3.2c6,0,12.8-2.4,18-0.8c0.4,0,0.8,0.4,1.2,0.4
		c6.8,3.2,9.6,13.6,15.6,17.2c6.4,4,16.8,1.6,22.4,6c5.6,4.4,6,15.2,11.2,20.8c5.2,5.2,16,5.2,20.8,11.2
		C396.251,114.102,393.851,124.902,398.251,130.902z"/>
	<path style="fill:#66BB6A;" d="M291.451,55.702c2.8,1.6,6.8,1.2,10.4,1.2c4,0,7.6,0,10.4,2c5.2,4,4.8,14,9.6,18.8
		c4.4,4.4,14.8,4,18.8,9.6c4,5.2,1.2,14.8,4.4,20.8c3.2,5.6,13.6,7.2,16.4,13.2c2.8,5.6-1.6,14.8,0.8,21.2c2.4,6,12.4,9.2,14.4,15.6
		c2,6-3.6,14.8-2,21.2c1.6,6,10.8,10.8,12.4,17.2c1.2,6.4-5.2,14-4.4,20.8c0.8,6.4,9.6,12,10.4,18.4c0.8,6.4-6.8,13.6-6.4,20
		c0.4,6.4,8.4,12.8,8.4,19.6c0,6.4-8,12.8-8.4,19.2c-0.4,6.8,7.2,13.6,6.4,20s-9.2,12-10.4,18.4s5.6,14.4,4.4,20.8
		c-1.2,6.4-10.8,11.2-12.4,17.2c-1.6,6.4,4,15.2,2,21.2c-2,6.4-12,9.6-14.4,15.6c-2.4,6.4,2,15.6-0.8,21.2
		c-3.2,6-13.2,7.6-16.4,13.2c-3.6,5.6-0.8,15.6-4.4,20.8c-4,5.2-14.4,5.2-18.8,9.6c-4.8,4.8-4.4,15.2-9.6,18.8
		c-2.8,2.4-7.2,2-11.6,2c-3.6,0-6.8,0-9.2,1.2c-4.4,2-7.2,7.6-10.8,11.2l-6.8-1.2c4-2.8,2.4-12.8,6.4-17.6c3.2-4,12.8-4.8,15.6-10.4
		c2.4-4.8-2.4-13.2,0-18.8c2-5.2,11.6-7.6,13.2-13.2c1.6-5.2-4.4-12.8-2.8-18.4c1.6-5.2,10.4-8.8,12-14.8c1.2-5.6-5.6-12.4-4.4-18.4
		c1.2-5.6,10-9.6,10.8-15.6c0.8-5.6-6.4-12.4-5.6-18c0.8-5.6,9.2-10.4,9.6-16c0.4-5.6-7.2-12-6.4-17.6c0.4-5.6,8.8-10.8,8.8-16.4
		c0.4-5.6-7.6-11.6-7.6-17.2s8.4-11.2,8.4-16.8c0-5.6-8-11.2-8.4-16.8c0-5.6,7.6-11.6,7.6-17.2c-0.4-5.6-8.4-10.8-8.8-16.4
		c-0.4-5.6,7.2-12,6.4-17.6c-0.4-5.6-9.2-10.4-9.6-16c-0.8-5.6,6.4-12.4,5.6-18c-0.8-5.6-9.6-10-10.8-15.6s5.6-12.8,4.4-18.4
		c-1.2-5.6-10.4-9.2-11.6-14.8c-1.6-5.6,4.4-13.6,2.8-18.4c-2-5.6-11.2-8.4-13.2-13.2c-2.4-5.6,2.4-14,0-18.8
		c-2.8-5.6-12.8-6-15.6-10.4c-3.6-4.8-2.4-13.6-5.6-17.2l7.2-0.4C284.651,49.302,287.451,54.102,291.451,55.702z"/>
	<path style="fill:#66BB6A;" d="M317.851,138.902c1.2,5.2-5.6,12.4-4.4,18.4c1.2,5.6,10,9.6,10.8,15.6c0.8,5.6-6.4,12.4-5.6,18
		c0.8,5.6,9.2,10.4,9.6,16c0.4,5.6-7.2,12-6.4,17.6c0.4,5.6,8.8,10.8,8.8,16.4c0.4,5.6-7.6,11.6-7.2,17.2c0,5.6,8.4,11.2,8.4,16.8
		c0,5.6-8,11.2-8.4,16.8c0,5.6,7.6,11.6,7.2,17.2c-0.4,5.6-8.4,10.8-8.8,16.4c-0.4,5.6,7.2,12,6.4,17.6c-0.4,5.6-9.2,10.4-9.6,16
		c-0.8,5.6,6.4,12.4,5.6,18c-0.8,5.6-9.6,10-10.8,15.6s5.6,12.8,4.4,18.4c-1.2,5.6-10.4,9.2-12,14.8c-1.6,5.6,4.4,13.2,2.8,18.4
		c-2,5.6-11.2,8.4-13.2,13.2c-2.4,5.6,2.4,14,0,18.8c-2.8,5.6-12.4,6-15.6,10.4c-3.6,5.2-2.4,14.8-6.4,17.6l6.8,1.2
		c-8.4,0.8-16.4,1.2-25.2,1.2c-1.2,0-2.8,0-4,0c0-15.6,8-15.6,8-30.8c0-15.6-8-15.6-8-30.8c0-15.6,8-15.6,8-30.8
		c0-15.6-8-15.6-8-30.8c0-15.6,8-15.6,8-30.8c0-15.6-8-15.6-8-30.8c0-15.6,8-15.6,8-30.8c0-15.6-8-15.6-8-30.8c0-15.6,8-15.6,8-30.8
		c0-15.6-8-15.6-8-30.8c0-15.6,8-15.6,8-30.8s-8-15.6-8-30.8c0-15.6,8-15.6,8-30.8c0-15.6-8-15.6-8-30.8c0-15.6,8-15.6,8-30.8
		c9.2,0,18,0.8,26.8,2c3.6,3.2,7.2,6.8,11.6,8c1.2,0.4,2.8,0.4,4,0.4v3.2c-4,0-7.6,0-10.4-1.2c-4-2-6.8-6.8-10-10l-7.2,0.4
		c3.2,3.6,2,12.4,5.6,17.2c3.2,4,12.8,4.8,15.6,10.4c2.4,4.8-2.4,13.2,0,18.8c2,5.2,11.6,7.6,13.2,13.2c1.6,5.2-4.4,12.8-2.8,18.4
		C307.451,129.702,316.651,133.302,317.851,138.902z"/>
	<path style="fill:#66BB6A;" d="M275.051,6.902c0,0-9.6,16.4-12.4,36.4h-3.2h-8c0-12,2.4-30,8-39.6L275.051,6.902z"/>
	<path style="fill:#66BB6A;" d="M259.451,476.102c0,15.6-8,15.6-8,30.8c-7.2,0-14-0.4-21.2-1.2l6.8-1.2c-4-2.8-2.4-12.8-6.4-17.6
		c-3.2-4.4-12.8-4.8-15.6-10.4c-2.4-4.8,2.4-13.2,0-18.8c-2-5.2-11.6-7.6-13.2-13.2c-1.6-5.2,4.4-12.8,2.8-18.4
		c-1.6-5.2-10.4-8.8-12-14.8c-1.2-5.6,5.6-12.4,4.4-18.4c-1.2-5.6-10-9.6-10.8-15.6c-0.8-5.6,6.4-12,5.6-18
		c-0.8-5.6-9.2-10.4-9.6-16c-0.4-5.6,6.8-12,6.4-17.6c-0.4-5.6-8.8-10.8-9.2-16.4s7.6-11.6,7.6-17.2s-8.4-11.2-8.4-17.2
		c0-5.6,8-11.2,8.4-16.8c0-5.6-7.6-11.6-7.6-17.2c0.4-5.6,8.4-10.8,9.2-16.4c0.4-5.6-7.2-12-6.4-17.6c0.4-5.6,9.2-10.4,9.6-16
		c0.8-5.6-6.4-12.4-5.6-18c0.8-5.6,9.6-10,10.8-15.6s-5.6-12.8-4.4-18.4c1.2-5.6,10.4-9.2,11.6-14.8c1.6-5.6-4.4-13.6-2.8-18.4
		c2-5.6,11.2-8.4,13.2-13.2c2.4-5.6-2.4-14,0-18.8c2.8-5.6,12.8-6,15.6-10.4c3.6-5.2,2.4-14.8,6.4-17.6l-6.8-1.2
		c8-0.8,16.4-1.2,24.8-1.2c1.2,0,2.8,0,4,0c0,15.2-8,15.6-8,30.8c0,15.6,8,15.6,8,30.8c0,15.6-8,15.6-8,30.8c0,15.6,8,15.6,8,30.8
		c0,15.6-8,15.6-8,30.8c0,15.6,8,15.6,8,30.8c0,15.6-8,15.6-8,30.8c0,15.6,8,15.6,8,30.8c0,15.6-8,15.6-8,30.8c0,15.6,8,15.6,8,30.8
		c0,15.6-8,15.6-8,30.8c0,15.6,8,15.6,8,30.8c0,15.6-8,15.6-8,30.8C251.451,460.502,259.451,460.502,259.451,476.102z"/>
	<path style="fill:#66BB6A;" d="M66.651,319.702c1.2,7.2,10.4,13.2,12,20c1.6,7.2-4,16.4-1.6,23.6s12.4,11.2,15.2,17.6
		c2.8,6.8-1.2,16.8,2.4,23.2c3.6,6.4,14,8.8,18,14.8c4,6.4,2,16.8,6.4,22.4c4.8,5.6,15.6,6,20.8,11.2s5.6,16,11.2,20.8
		c6,4.4,16.4,2.4,22.8,6c6.4,4,9.2,14.4,15.6,17.2c5.6,2.4,12.8-0.4,19.2-0.4c1.6,0,2.8,0,4,0.4c4,1.2,7.6,4.8,11.6,8
		c-113.6-15.2-201.2-112.4-201.2-230c0-105.6,70.8-194.8,167.2-222.8v0.4c-0.4,0-0.8,0.4-1.2,0.4c-6.8,3.2-9.6,13.6-15.6,17.2
		c-6.4,4-16.8,1.6-22.4,6c-5.6,4.4-6,15.6-11.2,20.8c-5.2,5.2-16,5.2-20.8,11.2c-4.4,5.6-2.4,16.4-6.4,22.4s-14.8,8.4-18,14.8
		c-3.6,6.4,0.4,16.4-2.4,23.2c-2.8,6.8-12.8,10.8-15.2,18c-2.4,6.8,3.6,16,1.6,23.6c-1.6,7.2-10.8,12.8-12,20s6,15.6,5.6,22.8
		c-0.4,7.2-8.8,14.4-8.8,21.6c0,7.6,8.4,14.4,8.8,21.6C72.651,304.102,65.851,312.502,66.651,319.702z"/>
</g>
<path d="M255.451,510.902c-1.6,0-2.8,0-4,0c-7.2,0-14.4-0.4-21.2-1.2c-2-0.4-4-0.4-6-0.8c-116.4-15.6-204.4-116-204.4-234
	c0-104.4,70-197.6,170-226.8c11.2-3.2,22.4-5.6,34.4-7.2c2-0.4,3.6-0.4,5.6-0.8h0.4l0,0c9.6-1.2,19.6-1.6,29.6-1.2
	c9.2,0,18.4,0.8,27.2,2c11.6,1.6,23.2,4,34.4,7.2c100,29.2,170,122.4,170,226.8c0,118-88,218.4-204.4,234c-2,0.4-4,0.4-6,0.8
	C272.651,510.502,264.251,510.902,255.451,510.902z M231.051,48.502h-0.4c-2,0-4,0.4-5.6,0.8c-11.6,1.6-22.4,4-33.2,6.8
	c-96.8,28-164.4,118-164.4,218.8c0,114,84.8,210.8,197.6,226c2,0.4,4,0.4,5.6,0.8c6.8,0.8,13.6,1.2,20.8,1.2c1.2,0,2.8,0,4,0
	c8.4,0,16.8-0.4,24.8-1.2c2,0,4-0.4,5.6-0.8c112.8-14.8,197.6-112,197.6-226c0-100.8-67.6-190.8-164.4-218.8l0,0
	c-10.8-3.2-22-5.6-33.2-6.8c-8.8-1.2-17.6-2-26.4-2c-1.2,0-2.8,0-4,0C247.451,47.302,239.051,47.702,231.051,48.502z"/>
<path d="M286.251,508.902c-1.2,0-2-0.4-2.8-1.2c-1.6-1.6-1.2-4,0-5.6l0.4-0.4c0.8-0.8,1.6-1.2,2.4-2c3.2-2.8,6.4-5.6,10.8-6.8
	c1.2-0.4,2.8-0.4,4-0.8c2.8,0,6,0.4,8.8,0.8c4,0.4,7.6,1.2,10,0s4.4-4.4,6.8-7.6c2.4-3.6,4.8-7.2,8.8-9.6c3.6-2.4,8-2.8,12.4-3.2
	c4-0.4,7.6-0.8,10-2.4c2-1.6,3.2-5.2,4.8-8.8c1.6-4,3.2-8.4,6-11.6c3.2-3.2,7.2-4.4,11.2-6c3.6-1.2,7.2-2.4,9.2-4.8
	c1.6-2,2-5.6,2.8-9.6c0.4-4.4,1.2-8.8,3.6-12.8c2.4-3.6,6.4-6,10-8c3.2-2,6.8-4,8-6.4s1.2-6,0.8-10c-0.4-4.4-0.4-9.2,1.2-13.2
	c1.6-4,5.2-6.8,8.4-10c2.8-2.4,6-5.2,6.8-7.6s0-6-0.8-10c-0.8-4.4-2-8.8-0.8-13.2c1.2-4.4,4-7.6,6.8-11.2c2.4-3.2,4.8-6,5.2-8.8
	s-0.8-6-2.4-9.6c-1.6-4-3.2-8.4-3.2-12.8c0.4-4.4,2.8-8.4,4.8-12c2-3.2,4-6.4,4-9.2c0-2.8-2-6-4-9.2c-2.4-3.6-4.4-7.6-4.8-12
	c-0.4-4.4,1.2-8.8,3.2-12.8c1.6-3.6,2.8-6.8,2.4-9.6c-0.4-2.8-2.8-5.6-5.2-8.4c-2.8-3.2-5.6-6.8-6.8-11.2c-1.2-4.4,0-8.8,0.8-13.2
	c0.8-3.6,1.6-7.2,0.8-10c-0.8-2.4-3.6-5.2-6.8-7.6c-3.2-2.8-6.8-6-8.4-10c-1.6-4-1.6-8.8-1.2-13.2c0.4-4,0.4-7.6-0.8-10
	s-4.4-4.4-8-6.4c-3.6-2.4-7.6-4.4-10-8s-3.2-8.4-3.6-12.8c-0.4-4-1.2-7.6-2.8-9.6s-5.2-3.2-9.2-4.8c-4-1.6-8.4-2.8-11.2-6
	c-3.2-3.2-4.8-7.6-6-11.6c-1.2-3.6-2.4-7.2-4.8-8.8c-2-1.6-6-2-10-2.4c-4.4-0.4-8.8-0.8-12.4-3.2c-3.6-2.4-6-6-8.4-9.6
	c-2-3.2-4.4-6.4-6.8-7.6c0,0-0.4-0.4-0.8-0.4c-2.4-0.8-5.6,0-9.2,0.4c-4.4,0.8-8.8,1.2-12.8,0s-7.6-4-10.8-6.8
	c-0.8-0.8-1.6-1.2-2.4-2l2.4-3.2l2.8-2.8l0,0c0.4,0.4,1.2,1.2,2,2c2.8,2.4,5.2,4.4,7.6,5.2c2.4,0.8,5.6,0.4,9.2-0.4
	c4.4-0.8,8.8-1.2,12.8,0c0.8,0.4,1.2,0.4,1.6,0.8c4.8,2,7.6,6.4,10.4,10.4c2,3.2,4,6,6,7.2s5.6,1.6,9.2,2c4.8,0.4,10,1.2,14,4.4
	c4,3.2,5.6,8,7.2,12.4c1.2,3.6,2.4,6.8,4.4,8.4s5.2,2.8,8.4,4c4.4,1.6,9.6,3.2,12.4,7.2c3.2,4,3.6,8.8,4.4,13.6
	c0.4,3.6,0.8,7.2,2.4,9.2c1.6,2,4.4,4,7.6,5.6c4,2.4,8.4,5.2,10.8,9.6c2.4,4.4,2,9.2,1.6,14c0,3.6-0.4,7.2,0.8,9.6s3.6,4.8,6.4,7.2
	c3.6,3.2,7.6,6.4,9.2,11.2c1.6,4.8,0.4,9.6-0.8,14c-0.8,3.6-1.6,7.2-0.8,9.6c0.4,2.4,2.8,5.2,5.2,8c3.2,3.6,6.4,7.6,7.2,12.4
	s-1.2,9.2-2.8,14c-1.2,3.6-2.8,6.8-2.4,9.2c0,2.4,2,5.6,4,8.4c2.4,4,5.2,8.4,5.2,13.6c0,4.8-2.4,9.2-5.2,13.6c-2,3.2-3.6,6-4,8.8
	c0,2.8,1.2,6,2.4,9.2c1.6,4.4,3.6,9.2,2.8,14s-4,8.8-7.2,12.4c-2.4,2.8-4.4,5.6-5.2,8s0,6,0.8,9.6c1.2,4.8,2,9.6,0.8,14
	c-1.6,4.8-5.6,8.4-9.2,11.2c-2.8,2.4-5.2,4.8-6.4,6.8c-1.2,2.4-0.8,6-0.8,9.6c0.4,4.8,0.4,9.6-1.6,14c-2.4,4.4-6.8,7.2-10.8,9.6
	c-3.2,2-6,3.6-7.6,5.6c-1.6,2.4-2,5.6-2.4,9.2c-0.8,4.8-1.2,9.6-4.4,13.6s-8,5.6-12.4,7.2c-3.2,1.2-6.4,2.4-8.4,4
	c-2,2-3.2,5.2-4.4,8.4c-1.6,4.4-3.2,9.2-7.2,12.4c-4,3.2-9.2,3.6-14,4.4c-3.6,0.4-6.8,0.8-9.2,2s-4,4.4-6,7.2
	c-2.8,4-5.6,8.4-10,10.4c-4.8,2-10,1.2-14.4,0.8c-2.8-0.4-5.2-0.8-7.2-0.8c-0.8,0-1.6,0-2,0.4c-2.4,0.8-4.8,2.8-7.6,5.2
	c-0.8,0.8-1.6,1.2-2.4,2C288.251,508.502,287.051,508.902,286.251,508.902z"/>
<path d="M224.651,508.902c-0.8,0-1.6-0.4-2.4-0.8c-0.8-0.8-1.6-1.2-2.4-2c-2.8-2.4-5.2-4.4-7.6-5.2c-2-0.8-5.6-0.4-9.2,0.4
	c-4.8,0.8-10,1.6-14.8-0.8c-4.4-2-7.6-6.4-10-10.4c-2-3.2-4-6-6-7.2s-5.6-1.6-9.2-2c-4.8-0.4-10-1.2-14-4.4c-4-3.2-5.6-8-7.2-12.4
	c-1.2-3.6-2.4-6.8-4.4-8.4c-2-2-5.2-2.8-8.4-4c-4.4-1.6-9.2-3.2-12.4-7.2s-3.6-8.8-4.4-13.6c-0.4-3.6-0.8-7.2-2.4-9.2
	c-1.2-2-4.4-4-7.2-5.6c-4-2.4-8.4-5.2-10.8-9.6c-2.4-4.4-2-9.2-1.6-14c0-3.6,0.4-7.2-0.8-9.6c-0.8-2.4-3.6-4.4-6.4-6.8
	c-3.6-3.2-7.6-6.4-9.2-11.2c-1.6-4.8-0.4-9.6,0.8-14c0.8-3.6,1.6-6.8,0.8-9.6c-0.8-2.4-2.8-5.2-5.2-8c-2.8-3.6-6.4-7.6-7.2-12.4
	s1.2-9.2,2.8-13.6c1.2-3.6,2.8-6.8,2.4-9.2c0-2.4-2-5.6-4-8.8c-2.4-4-5.2-8.4-5.2-13.2c0-4.8,2.8-9.6,5.2-13.6c2-3.2,3.6-6,3.6-8.8
	c0.4-2.8-1.2-6-2.4-9.2c-1.6-4.4-3.6-9.2-2.8-13.6c0.8-4.8,4-8.8,7.2-12.4c2.4-2.8,4.4-5.6,5.2-8s0-6-0.8-9.6c-1.2-4.8-2-9.6-0.8-14
	c1.6-4.8,5.2-8,9.2-11.2c2.8-2.4,5.2-4.8,6.4-6.8c1.2-2.4,0.8-6,0.8-9.6c-0.4-4.8-0.4-9.6,1.6-14c2.4-4.4,6.8-7.2,10.8-9.6
	c3.2-2,6-3.6,7.6-5.6c1.6-2.4,2-5.6,2.4-9.2c0.8-4.8,1.2-9.6,4.4-13.6s8-5.6,12.4-7.2c3.2-1.2,6.4-2.4,8.4-4c2-2,3.2-5.2,4.4-8.4
	c1.6-4.4,3.2-9.2,7.2-12.4c4-3.2,9.2-3.6,14-4.4c3.6-0.4,6.8-0.8,9.2-2s4-4.4,6-7.2c2.8-4,5.6-8.4,10-10.4c0.8-0.4,1.2-0.4,1.6-0.4
	c4.4-1.2,8.8-0.8,13.2,0c3.6,0.4,7.2,0.8,9.6,0.4c2.4-0.8,4.8-2.8,7.6-5.2c0.8-0.8,1.6-1.2,2.4-2c1.6-1.2,4-1.2,5.2,0
	c1.6,1.6,1.6,4,0,5.6l-0.4,0.4c-0.8,0.8-1.6,1.2-2.4,2c-3.2,2.8-6.4,5.6-10.4,6.8c-4,1.2-8.4,0.4-12.8,0c-3.6-0.4-6.8-1.2-9.2-0.4
	l-0.8,0.4c-2.4,1.2-4.4,4-6.4,7.6c-2.4,3.6-4.8,7.2-8.4,9.6c-3.6,2.4-8,2.8-12.4,3.2c-4,0.4-7.6,0.8-10,2.8c-2,1.6-3.2,5.2-4.8,8.8
	c-1.6,4-3.2,8.4-6,11.6c-3.2,3.2-7.2,4.4-11.2,6c-3.6,1.2-7.2,2.4-9.2,4.8c-1.6,2-2,5.6-2.8,9.6c-0.4,4.4-1.2,8.8-3.6,12.8
	c-2.4,3.6-6.4,6-10,8c-3.2,2-6.4,4-8,6.4c-1.2,2.4-1.2,6-0.8,10c0.4,4.4,0.4,8.8-1.2,13.2c-1.6,4-5.2,7.2-8.4,10
	c-2.8,2.4-5.6,4.8-6.8,7.6c-0.8,2.4,0,6,0.8,10c0.8,4.4,2,8.8,0.8,13.2c-1.2,4.4-4,8-6.8,11.2c-2.4,3.2-4.8,6-5.2,8.8s0.8,6,2.4,9.6
	c1.6,4,3.6,8.4,3.2,12.8c-0.4,4.4-2.8,8.4-4.8,12c-2,3.2-4,6.4-4,9.2c0,2.8,2,6,4,9.2c2.4,3.6,4.4,7.6,4.8,12
	c0.4,4.4-1.2,8.8-3.2,12.8c-1.6,3.6-2.8,6.8-2.4,9.6c0.4,2.8,2.8,5.6,5.2,8.8c2.8,3.2,5.6,6.8,6.8,11.2c1.2,4.4,0,8.8-0.8,13.2
	c-0.8,3.6-1.6,7.2-0.8,10s3.6,5.2,6.8,7.6c3.2,2.8,6.8,6,8.4,10c1.6,4,1.6,8.8,1.2,13.2c-0.4,4-0.4,7.6,0.8,10s4.4,4.4,8,6.4
	c3.6,2.4,7.6,4.4,10,8s3.2,8.4,3.6,12.8c0.4,4,1.2,7.6,2.8,9.6s5.2,3.6,9.2,4.8c4,1.6,8.4,2.8,11.6,6c3.2,3.2,4.8,7.2,6,11.6
	c1.2,3.6,2.4,7.2,4.8,8.8c2,1.6,6,2,10,2.4c4.4,0.4,8.8,0.8,12.4,3.2c3.6,2.4,6,6,8.4,9.6c2,3.2,4.4,6.4,6.8,7.6
	c2.4,1.2,6.4,0.8,10,0c4.4-0.8,9.6-1.2,12.8,0c4,1.2,7.6,4,10.8,6.8c0.8,0.8,1.6,1.2,2.4,2c1.6,1.6,2,4,0.4,5.6
	C227.051,508.502,225.851,508.902,224.651,508.902z"/>
<path d="M280.651,509.702c-1.2,0-2-0.4-2.8-1.2c-1.6-1.6-1.6-4,0-5.6c1.2-1.2,2.4-2.4,3.6-4c2.4-3.2,4.8-6.4,8.4-8
	c3.6-1.6,8-1.6,11.2-1.6c3.6,0,6.8,0,8.8-1.2c1.6-1.2,2.8-4.4,3.6-7.6c1.2-3.6,2.4-8,5.6-10.8c2.8-2.8,6.8-4,10.4-5.2
	c3.2-1.2,6.8-2,8-4c1.2-1.6,1.6-4.8,1.6-8c0.4-4,0.4-8.4,2.8-12c2-3.6,6-5.6,9.2-7.6c2.8-1.6,6-3.2,7.2-5.2c0.8-2,0.4-5.2,0-8.4
	c-0.4-4-1.2-8.4,0.8-12.4c1.6-4,4.8-6.4,8-8.8c2.8-2,5.2-4,6-6.4c0.8-2,0-5.2-0.8-8.4c-1.2-4-2-8.4-1.2-12.4c1.2-4,4-7.2,7.2-10
	c2.4-2.4,4.8-4.8,5.2-6.8s-0.8-5.2-2-8.4c-1.6-3.6-3.2-8-2.4-12.4c0.8-4,3.2-7.6,6-10.8c2-2.4,4-5.2,4.4-7.2s-1.2-5.2-2.8-8
	c-2-3.6-4-7.6-3.6-12s2.4-8,4.8-11.2c1.6-2.8,3.6-5.6,3.6-8c0-2-2-5.2-3.6-8c-2.4-3.6-4.8-7.2-4.8-11.2c-0.4-4.4,2-8.4,3.6-12
	c1.6-2.8,3.2-6,2.8-8c-0.4-2.4-2.4-4.8-4.4-7.6c-2.8-3.2-5.2-6.8-6-10.8c-0.8-4.4,1.2-8.4,2.4-12.4c1.2-3.2,2.4-6,2-8
	s-2.8-4.8-5.2-6.8c-2.8-2.8-6-6-7.2-10s0-8.4,1.2-12.4c0.8-3.2,1.6-6.4,0.8-8.4s-3.6-4.4-6-6.4c-3.2-2.4-6.8-5.2-8.4-8.8
	c-1.6-4-1.2-8.4-0.8-12.4c0.4-3.2,0.8-6.4,0-8.4c-1.2-2-4-3.6-7.2-5.2c-3.6-2-7.2-4-9.2-7.6c-2.4-3.6-2.4-8-2.8-12
	c0-3.2-0.4-6.4-1.6-8c-1.6-2-4.8-2.8-8-4c-3.6-1.2-7.6-2.4-10.4-5.2c-2.8-3.2-4.4-7.2-5.6-10.8c-0.8-3.2-2-6.4-3.6-7.6
	c-1.6-1.2-4.8-1.2-8-1.2h-1.2c-3.6,0-7.6,0-11.2-1.6c-3.6-1.6-6-4.8-8.4-8c-0.8-1.2-1.6-2-2.4-3.2c-1.6-1.6-1.2-4,0.4-5.6
	c1.6-1.6,4-1.2,5.6,0.4c0.8,1.2,2,2.4,2.8,3.6c2,2.4,4,4.8,5.6,5.6c1.6,0.8,4.8,0.8,7.6,0.8h1.2c4.8,0,9.2,0.4,12.8,2.8
	c3.6,2.8,5.2,7.2,6.4,11.6c0.8,3.2,2,6,3.6,7.6c1.2,1.2,4.4,2.4,7.2,3.2c4.4,1.2,9.2,2.8,12,6.8c2.8,3.6,3.2,8,3.2,12.4
	c0,3.2,0.4,6.4,1.6,8.4c1.2,1.6,4,3.2,6.4,4.8c4,2,8,4.4,10.4,8.8c2,4,1.6,8.4,0.8,12.8c-0.4,3.2-0.8,6.4,0,8.4s3.2,4,5.6,5.6
	c3.2,2.8,7.2,5.6,8.8,10s0.4,8.8-0.8,12.8c-0.8,3.2-1.6,6.4-1.2,8.4c0.4,2,2.8,4.4,5.2,6.4c3.2,3.2,6.4,6.4,7.2,10.8
	s-0.8,8.8-2.4,12.8c-1.2,2.8-2.4,6-2,8.4c0.4,2,2.4,4.4,4.4,6.8c2.8,3.2,5.6,7.2,6,11.6s-1.6,8.4-3.6,12.4c-1.6,2.8-2.8,5.6-2.8,8
	c0,2,2,4.8,3.6,7.6c2.4,3.6,4.8,7.6,4.8,12s-2.8,8.8-4.8,12c-1.6,2.8-3.6,5.2-3.6,7.6c0,2,1.6,5.2,2.8,8c2,4,4,8,3.6,12.4
	s-3.6,8.4-6,11.6c-2,2.4-4,4.8-4.4,7.2c-0.4,2,0.8,5.2,2,8.4c1.6,4,3.2,8.4,2.4,12.8s-4.4,8-7.2,11.2c-2,2-4.4,4.4-4.8,6.4
	c-0.4,2,0.4,5.2,1.2,8.4c1.2,4.4,2.4,8.8,0.8,12.8c-1.6,4.4-5.2,7.6-8.8,10c-2.4,2-4.8,4-5.6,5.6c-0.8,2-0.4,5.2,0,8.4
	c0.4,4.4,1.2,8.8-0.8,12.8c-2,4.4-6.4,6.8-10.4,8.8c-2.8,1.6-5.6,3.2-6.4,4.8c-1.2,2-1.2,5.2-1.6,8.4c-0.4,4.4-0.4,9.2-3.2,12.4
	c-2.8,4-7.6,5.2-12,6.8c-2.8,0.8-6,2-7.2,3.2c-1.6,1.6-2.4,4.8-3.6,7.6c-1.2,4.4-2.8,8.8-6.4,11.6c-4,2.8-9.2,2.8-13.6,2.8
	c-2.8,0-6,0-8,0.8s-4,3.6-6,6c-1.2,1.6-2.8,3.2-4,4.8C282.651,509.302,281.451,509.702,280.651,509.702z"/>
<path d="M230.251,509.702c-1.2,0-2-0.4-2.8-1.2c-1.6-1.6-2.8-3.2-4-4.8c-2-2.4-4-4.8-5.6-5.6c-1.6-0.8-4.8-0.8-8-0.8h-0.8
	c-4.4,0-9.2-0.4-12.8-2.8c-3.6-2.8-5.2-7.2-6.4-11.6c-0.8-3.2-2-6-3.6-7.6c-1.2-1.6-4.4-2.4-7.2-3.2c-4.4-1.2-9.2-2.8-12-6.8
	c-2.8-3.6-3.2-8-3.2-12.8c0-3.2-0.4-6.4-1.6-8.4c-1.2-1.6-3.6-3.2-6.4-4.8c-4-2-8-4.4-10.4-8.8c-2-4-1.6-8.4-0.8-12.8
	c0.4-3.2,0.8-6.4,0-8.4s-3.2-4-5.6-5.6c-3.2-2.8-7.2-5.6-8.8-10s-0.4-8.8,0.8-12.8c0.8-3.2,1.6-6.4,1.2-8.4c-0.4-2-2.8-4.4-5.2-6.4
	c-3.2-3.2-6.4-6.4-7.2-10.8s0.8-8.8,2.4-12.8c1.2-2.8,2.4-6,2-8.4c-0.4-2-2.4-4.4-4.4-7.2c-2.8-3.2-5.6-7.2-6-11.6s1.6-8.4,3.6-12.4
	c1.6-2.8,2.8-5.6,2.8-8c0-2-2-4.8-3.6-7.6c-2.4-3.6-4.8-7.6-4.8-12s2.8-8.4,4.8-12c1.6-2.8,3.6-5.2,3.6-7.6c0-2-1.2-5.2-2.8-8
	c-2-4-4-8-3.6-12.4s3.6-8.4,6-11.6c2-2.4,4-4.8,4.4-6.8s-0.8-5.2-2-8.4c-1.6-4-3.2-8.4-2.4-12.8s4.4-8,7.2-10.8
	c2.4-2.4,4.4-4.4,5.2-6.4c0.4-2-0.4-5.2-1.2-8.4c-1.2-4.4-2.4-8.8-0.8-12.8c1.6-4.4,5.2-7.2,8.8-10c2.4-2,4.8-4,5.6-5.6
	c0.8-2,0.4-5.2,0-8.4c-0.4-4.4-1.2-8.8,0.8-12.8c2-4.4,6.4-6.8,10.4-8.8c2.8-1.6,5.6-3.2,6.4-4.8c1.2-2,1.2-5.2,1.6-8.4
	c0.4-4.4,0.4-9.2,3.2-12.4c2.8-4,7.6-5.2,12-6.8c2.8-0.8,6-2,7.2-3.2c1.6-1.6,2.4-4.8,3.6-7.6c1.2-4.4,2.8-8.8,6.4-11.6
	c3.6-2.8,8.4-2.8,12.8-2.8h0.8c2.8,0,6,0,8-0.8s4-3.6,5.6-5.6c1.2-1.6,2.8-3.2,4-4.8c1.6-1.6,4-1.6,5.6,0s1.6,4,0,5.6
	c-1.2,1.2-2.4,2.8-3.6,4c-2.4,3.2-4.8,6.4-8.4,8c-3.6,1.6-7.6,1.6-11.6,1.6h-0.8c-3.2,0-6.4,0-8,1.2c-1.6,1.2-2.8,4.4-3.6,7.6
	c-1.2,3.6-2.4,8-5.6,10.8c-2.8,2.8-6.8,4-10.4,5.2c-3.2,1.2-6.8,2-8,4c-1.2,1.6-1.6,4.8-1.6,8c-0.4,4-0.4,8.4-2.8,12
	c-2,3.6-6,5.6-9.2,7.6c-2.8,1.6-6,3.2-7.2,5.2c-0.8,2-0.4,5.2,0,8.4c0.4,4,1.2,8.4-0.8,12.4c-1.6,4-4.8,6.4-8.4,8.8
	c-2.8,2-5.2,4-6,6.4c-0.8,2,0,5.2,1.2,8.4c1.2,4,2,8.4,1.2,12.4c-1.2,4-4,7.2-7.2,10c-2.4,2.4-4.8,4.8-5.2,6.8s0.8,5.2,2,8
	c1.6,3.6,3.2,8,2.4,12.4c-0.8,4-3.2,7.6-6,10.8c-2,2.4-4,5.2-4.4,7.6c-0.4,2,1.2,5.2,2.8,8c2,3.6,4,7.6,3.6,12
	c-0.4,4.4-2.4,8-4.8,11.2c-1.6,2.8-3.6,5.6-3.6,8s2,5.2,3.6,8c2.4,3.6,4.8,7.2,4.8,11.2c0.4,4.4-2,8.4-3.6,12c-1.6,2.8-3.2,6-2.8,8
	s2.4,4.8,4.4,7.6c2.8,3.2,5.2,6.8,6,10.8c0.8,4.4-1.2,8.4-2.4,12.4c-1.2,3.2-2.4,6-2,8s2.8,4.4,5.2,6.8c2.8,2.8,6,6,7.2,10
	s0,8.8-1.2,12.4c-0.8,3.2-1.6,6.4-1.2,8.4c0.8,2,3.6,4.4,6,6.4c3.2,2.4,6.8,5.2,8.4,8.8c1.6,4,1.2,8.4,0.8,12.4
	c-0.4,3.2-0.8,6.4,0,8.4c1.2,2,4,3.6,7.2,5.2c3.6,2,7.2,4,9.2,7.6c2.4,3.6,2.4,8,2.8,12c0,3.2,0.4,6.8,1.6,8.4c1.6,2,4.8,2.8,8,4
	c4,1.2,7.6,2.4,10.4,5.2c2.8,2.8,4.4,7.2,5.6,10.8c0.8,3.2,2,6.4,3.6,7.6s4.8,1.2,8,1.2h0.8c4,0,8,0,11.6,1.6s6,4.8,8.4,8
	c1.2,1.6,2.4,2.8,3.6,4c1.6,1.6,1.6,4,0,5.6C232.651,509.302,231.451,509.702,230.251,509.702z"/>
<path d="M273.451,508.502c-1.2,0-2.4-0.4-3.2-1.6c-1.2-1.6-0.8-4.4,0.8-5.6c0.8-0.4,1.2-4,1.6-6c0.8-3.6,1.2-7.6,3.6-10.8
	c2-2.8,5.6-4,8.8-5.6c2.8-1.2,5.6-2.4,6.8-4c0.8-1.2,0-4-0.4-6.4c-0.8-3.6-1.6-8,0-12c1.2-3.6,4.8-5.6,7.6-8
	c2.4-1.6,4.8-3.6,5.6-5.2c0.4-1.2-0.4-4-1.2-6.4c-1.2-3.6-2.8-7.6-1.6-11.6c1.2-3.6,4-6.4,6.8-8.8c2-2,4.4-4,4.8-5.6
	c0.4-1.6-0.8-4-2-6.4c-1.6-3.6-3.2-7.6-2.4-11.6s3.6-6.8,6.4-9.6c2-2,4-4,4.4-6c0.4-1.6-1.2-4-2.4-6.4c-1.6-3.6-3.6-7.2-3.2-11.6
	c0.4-4,3.2-7.2,5.6-10c1.6-2,4-4.4,4-6s-1.2-4-2.8-6.4c-2-3.2-4-7.2-4-11.2c0.4-4,2.8-7.2,5.2-10.4c1.6-2,3.6-4.4,3.6-6
	s-1.6-4-3.2-6.4c-2-3.2-4.4-6.8-4.4-10.8s2.4-7.6,4.8-10.4c1.6-2,3.2-4.8,3.2-6.4s-1.6-4-3.2-6.4c-2.4-3.2-4.8-6.4-4.8-10.8
	c0-4,2.4-7.6,4.4-10.8c1.6-2.4,3.2-4.8,3.2-6.4s-2-4-3.6-6c-2.4-2.8-4.8-6.4-5.2-10.4s2-8,4-11.2c1.2-2.4,2.8-4.8,2.8-6.4s-2-4-4-6
	c-2.4-2.8-5.2-6-5.6-10c-0.4-4,1.6-8,3.2-11.6c1.2-2.4,2.4-4.8,2.4-6.4c-0.4-1.6-2.4-4-4.4-5.6c-2.8-2.8-5.6-5.6-6.4-9.6
	c-0.8-4,1.2-8,2.4-11.6c1.2-2.4,2.4-5.2,2-6.4c-0.4-1.6-2.8-3.6-4.8-5.6c-2.8-2.4-6-5.2-6.8-8.8c-1.2-4,0.4-8,1.6-12
	c0.8-2.4,1.6-5.2,1.2-6.4c-0.4-1.6-3.2-3.6-5.6-5.2c-3.2-2-6.4-4.4-7.6-8c-1.6-4-0.8-8,0-12c0.4-2.4,0.8-5.2,0.4-6.4
	c-0.8-1.6-4-2.8-6.8-4c-3.2-1.2-6.4-2.8-8.8-5.6c-2.4-3.2-3.2-7.2-3.6-10.8c-0.4-2.4-0.8-5.2-1.6-6c0,0,0,0-0.4-0.4l5.2-6l-2.4,3.2
	l2.4-3.2c0.4,0.4,0.8,0.4,0.8,0.8c2.4,2.8,3.2,6.4,3.6,10c0.4,2.8,0.8,5.6,2,7.6c0.8,1.2,3.2,2,5.2,2.8c4,1.6,8.4,3.6,10.8,8
	c2,3.6,1.2,7.6,0.4,11.6c-0.4,2.8-1.2,5.6-0.4,7.6c0.4,1.2,2.8,2.8,4.8,4.4c3.2,2.4,7.2,4.8,8.4,9.2c1.2,4,0,7.6-1.2,11.6
	c-0.8,2.4-2,5.6-1.2,7.2c0.4,1.6,2.4,3.2,4.4,5.2c3.2,2.8,6.4,5.6,7.2,10c0.8,4-0.8,8-2.4,11.6c-1.2,2.4-2.4,5.2-2,6.8
	c0.4,1.6,2.4,3.6,4,5.2c2.8,2.8,6,6,6.4,10.4c0.8,4-1.2,8-3.2,11.2c-1.2,2.4-2.8,5.2-2.4,6.8c0,1.6,2,3.6,4,5.6
	c2.4,2.8,5.6,6.4,6,10.4s-2,8-4,11.2c-1.2,2.4-2.8,4.8-2.8,6.4s2,4,3.6,6c2.4,3.2,5.2,6.4,5.2,10.8c0.4,4-2,7.6-4.4,10.8
	c-1.6,2.4-3.2,4.8-3.2,6.4s1.6,4,3.2,6c2.4,3.2,4.8,6.8,4.8,10.8c0,4.4-2.8,8-4.8,10.8c-1.6,2-3.2,4.4-3.2,6s1.6,4,3.2,6.4
	c2,3.2,4.4,6.8,4.4,11.2c0,4-2.8,7.6-5.2,10.8c-1.6,2-3.6,4.4-3.6,6s1.6,4.4,2.8,6.4c2,3.2,4,7.2,4,11.2c-0.4,4.4-3.2,7.6-6,10.4
	c-1.6,2-3.6,4-4,5.6s1.2,4.4,2.4,6.8c1.6,3.6,3.6,7.2,3.2,11.2c-0.8,4.4-4,7.6-6.4,10.4c-2,2-4,4-4,5.6c-0.4,1.6,0.8,4.4,2,6.8
	c1.6,3.6,3.2,7.6,2.4,11.6c-0.8,4.4-4.4,7.2-7.2,10c-2,1.6-4,3.6-4.4,4.8c-0.4,1.6,0.4,4.4,1.6,7.2c1.2,4,2.8,7.6,1.2,11.6
	c-1.2,4.4-5.2,6.8-8.4,9.2c-2,1.6-4.4,3.2-4.8,4.4c-0.8,1.6,0,4.8,0.4,7.6c0.8,4,1.6,8-0.4,11.6c-2.4,4.4-6.8,6-10.8,7.6
	c-2,0.8-4.4,2-5.2,2.8c-1.2,1.6-1.6,4.8-2.4,7.6c-0.8,4.4-1.6,8.8-4.8,11.2C275.051,508.502,274.251,508.502,273.451,508.502z"/>
<path d="M237.451,508.902c-0.8,0-1.6-0.4-2.4-0.8c-3.6-2.4-4.4-6.8-4.8-11.2c-0.4-2.8-0.8-5.6-2-7.6c-0.8-1.2-3.2-2-5.2-2.8
	c-4-1.6-8.4-3.6-10.8-8c-2-3.6-1.2-7.6-0.4-11.6c0.4-2.8,1.2-5.6,0.4-7.6c-0.4-1.2-2.8-2.8-4.8-4.4c-3.2-2.4-7.2-4.8-8.4-9.2
	c-1.2-4,0-8,1.2-11.6c0.8-2.8,2-5.6,1.2-7.2c-0.4-1.2-2.4-3.2-4.4-4.8c-3.2-2.8-6.4-5.6-7.2-10c-0.8-4,0.8-8,2.4-11.6
	c1.2-2.4,2.4-5.2,2-6.8c-0.4-1.6-2.4-3.6-4-5.2c-2.8-2.8-6-6-6.4-10.4c-0.8-4,1.2-8,3.2-11.2c1.2-2.4,2.8-5.2,2.4-6.8
	c0-1.6-2-3.6-4-5.6c-2.8-2.8-5.6-6.4-6-10.4s2-8,3.6-11.2c1.2-2.4,2.8-4.8,2.8-6.4s-2-4-3.6-6c-2.4-3.2-5.2-6.4-5.6-10.8
	c0-4,2.4-8,4.4-11.2c1.6-2.4,3.2-4.8,3.2-6.4s-1.6-4-3.2-6c-2.4-3.2-4.8-6.8-4.8-10.8s2.4-7.6,4.8-10.8c1.6-2,3.2-4.4,3.2-6
	s-1.6-4-3.2-6.4c-2-3.2-4.4-6.8-4.4-11.2c0.4-4.4,2.8-7.6,5.6-10.8c1.6-2,3.6-4.4,3.6-6s-1.6-4.4-2.8-6.4c-2-3.2-4-7.2-3.6-11.2
	c0.4-4.4,3.2-7.6,6-10.4c1.6-2,3.6-4,4-5.6c0-1.6-1.2-4.4-2.4-6.8c-1.6-3.6-3.6-7.2-3.2-11.2c0.8-4,3.6-7.2,6.4-10c2-2,4-4,4-5.2
	c0.4-1.6-0.8-4.4-2-6.8c-1.6-3.6-3.2-7.6-2.4-11.6c0.8-4.4,4.4-7.2,7.2-9.6c2-1.6,4-3.6,4.4-4.8c0.4-1.6-0.4-4.4-1.2-7.2
	c-1.2-4-2.8-7.6-1.2-11.6c1.2-4.4,5.2-6.8,8.4-9.2c2-1.6,4.4-3.2,4.8-4.4c0.8-1.6,0-4.8-0.4-7.6c-0.8-4-1.6-8,0.4-11.6
	c2.4-4.4,6.8-6,10.8-8c2-0.8,4.4-2,5.2-2.8c1.2-1.6,1.6-4.4,2-7.6c0.8-4.4,1.6-8.8,4.8-11.2c1.6-1.2,4.4-0.8,5.6,0.8
	c1.2,1.6,0.8,4.4-0.8,5.6c-0.8,0.8-1.2,4-1.6,6c-0.8,3.6-1.2,7.6-3.6,10.8c-2,2.8-5.6,4-8.8,5.6c-2.8,1.2-6,2.4-6.8,4
	c-0.4,1.2,0,4,0.4,6.4c0.8,4,1.6,8,0,12c-1.6,3.6-4.8,5.6-7.6,8c-2.4,1.6-4.8,3.6-5.6,5.2c-0.4,1.2,0.4,4,1.2,6.4
	c1.2,3.6,2.8,8,1.6,12c-0.8,3.6-4,6.4-6.8,8.8c-2,2-4.4,4-4.8,5.6c-0.4,1.6,0.8,4,2,6.4c1.6,3.6,3.2,7.6,2.4,11.6s-3.6,6.8-6.4,9.6
	c-2,2-4,4-4.4,5.6s1.2,4,2.4,6.4c1.6,3.6,3.6,7.2,3.2,11.2c-0.4,4-3.2,7.2-5.6,10c-1.6,2-4,4.4-4,6s1.2,4,2.8,6.4
	c2,3.2,4,7.2,4,11.2c-0.4,4-2.8,7.2-5.2,10.4c-1.6,2-3.6,4.4-3.6,6s1.6,4,3.2,6.4c2,3.2,4.4,6.8,4.4,10.8c0,4-2.8,7.6-4.8,10.8
	c-1.6,2-3.2,4.8-3.2,6.4s1.6,4,3.2,6.4c2.4,3.2,4.8,6.4,4.8,10.8c0,4-2.4,7.6-4.4,10.8c-1.6,2.4-3.2,4.8-3.2,6.4s2,4,3.6,6
	c2.4,2.8,5.2,6.4,5.2,10.4c0.4,4-2,8-4,11.2c-1.2,2.4-2.8,4.8-2.8,6.4s2.4,4,4,6c2.8,2.8,5.2,6,5.6,10c0.4,4-1.6,8-3.2,11.2
	c-1.2,2.4-2.4,4.8-2.4,6.4c0.4,1.6,2.4,4,4.4,6c2.8,2.8,5.6,5.6,6.4,9.6c0.8,4-0.8,8-2.4,11.6c-1.2,2.4-2.4,5.2-2,6.4
	c0.4,1.6,2.8,3.6,4.8,5.6c2.8,2.4,6,5.2,6.8,8.8c1.2,4-0.4,8-1.6,11.6c-0.8,2.4-1.6,5.2-1.2,6.8c0.4,1.6,3.2,3.6,5.6,5.2
	c3.2,2,6.4,4.4,7.6,8c1.6,4,0.8,8,0,12c-0.4,2.4-0.8,5.6-0.4,6.4c0.8,1.6,4,2.8,6.8,4c3.2,1.2,6.8,2.8,8.8,5.6
	c2.4,3.2,3.2,7.2,3.6,10.8c0.4,2,0.8,5.6,1.6,6c1.6,1.2,2,3.6,0.8,5.6C239.851,508.102,238.651,508.902,237.451,508.902z"/>
<path d="M251.451,511.302c-2.4,0-4-1.6-4-4c0-8.8,2.4-13.6,4.4-17.6c2-3.6,3.6-6.8,3.6-13.6c0-6.8-1.6-10-3.6-13.6
	c-2-4-4.4-8.8-4.4-17.2c0-8.8,2.4-13.2,4.4-17.2c2-3.6,3.6-6.8,3.6-13.6c0-6.8-1.6-10-3.6-13.6c-2-4-4.4-8.8-4.4-17.2
	c0-8.8,2.4-13.2,4.4-17.2c2-3.6,3.6-6.8,3.6-13.6c0-6.8-1.6-10-3.6-13.6c-2-4-4.4-8.4-4.4-17.2c0-8.8,2.4-13.2,4.4-17.2
	c2-3.6,3.6-6.8,3.6-13.6c0-6.8-1.6-10-3.6-13.6c-2-4-4.4-8.8-4.4-17.2c0-8.8,2.4-13.2,4.4-17.2c2-3.6,3.6-6.8,3.6-13.6
	c0-6.8-1.6-10-3.6-13.6c-2-4-4.4-8.8-4.4-17.2c0-8.8,2.4-13.2,4.4-17.2c2-3.6,3.6-6.8,3.6-13.6s-1.6-10-3.6-13.6
	c-2-4-4.4-8.4-4.4-17.2c0-8.8,2.4-13.2,4.4-17.2c2-3.6,3.6-6.8,3.6-13.6c0-6.8-1.6-10-3.6-13.6c-2-4-4.4-8.8-4.4-17.2
	c0-8.8,2.4-13.2,4.4-17.2c2-3.6,3.6-6.8,3.6-13.6l0,0c0-2.4,1.6-4,4-4l0,0c2.4,0,4,1.6,4,4l0,0c0,8.8-2.4,13.2-4.4,17.2
	c-2,3.6-3.6,6.8-3.6,13.6c0,6.8,1.6,10,3.6,13.6c2,4,4.4,8.8,4.4,17.2c0,8.8-2.4,13.2-4.4,17.2c-2,3.6-3.6,6.8-3.6,13.6
	c0,6.8,1.6,10,3.6,13.6c2,4,4.4,8.8,4.4,17.2s-2.4,13.2-4.4,17.2c-2,3.6-3.6,6.8-3.6,13.6c0,6.8,1.6,10,3.6,13.6
	c2,4,4.4,8.8,4.4,17.2c0,8.8-2.4,13.2-4.4,17.2c-2,3.6-3.6,6.8-3.6,13.6c0,6.8,1.6,10,3.6,13.6c2,4,4.4,8.8,4.4,17.2
	c0,8.8-2.4,13.2-4.4,17.2c-2,3.6-3.6,6.8-3.6,13.6c0,6.8,1.6,10,3.6,13.6c2,4,4.4,8.8,4.4,17.2c0,8.8-2.4,13.2-4.4,17.2
	c-2,3.6-3.6,6.8-3.6,13.6c0,6.8,1.6,10,3.6,13.6c2,4,4.4,8.8,4.4,17.2c0,8.8-2.4,13.2-4.4,17.2c-2,3.6-3.6,6.8-3.6,13.6
	c0,6.8,1.6,10,3.6,13.6c2,4,4.4,8.8,4.4,17.2c0,8.8-2.4,13.2-4.4,17.2c-2,3.6-3.6,6.8-3.6,13.6
	C255.451,509.302,253.851,511.302,251.451,511.302z"/>
<path d="M262.651,47.302h-0.4c-2-0.4-3.6-2.4-3.6-4.4c2-15.2,6.8-26.8,10.4-32.8l-7.6-1.6c-4,8.4-6,20.4-6,35.2c0,2.4-1.6,4-4,4l0,0
	c-2.4,0-4-1.6-4-4c0-12.4,1.6-29.6,8.4-41.6c0.8-1.6,2.4-2.4,4.4-2l15.6,3.6c1.2,0.4,2.4,1.2,2.8,2.4c0.4,1.2,0.4,2.8-0.4,3.6
	c0,0-9.2,13.6-12,34.4C266.251,45.702,264.651,47.302,262.651,47.302z"/>
</svg>