<svg width="265" height="264" xmlns="http://www.w3.org/2000/svg" xmlns:xlink="http://www.w3.org/1999/xlink" overflow="hidden"><defs><clipPath id="clip0"><rect x="3206" y="1023" width="265" height="264"/></clipPath></defs><g clip-path="url(#clip0)" transform="translate(-3206 -1023)"><path d="M3350.5 1095C3359.61 1095 3367 1087.61 3367 1078.5 3367 1069.39 3359.61 1062 3350.5 1062 3341.39 1062 3334 1069.39 3334 1078.5 3334 1087.61 3341.39 1095 3350.5 1095ZM3350.5 1066.12C3357.33 1066.12 3362.88 1071.67 3362.88 1078.5 3362.88 1085.33 3357.33 1090.87 3350.5 1090.87 3343.67 1090.87 3338.12 1085.33 3338.12 1078.5 3338.13 1071.67 3343.67 1066.13 3350.5 1066.12Z" fill="#F2F2F2" fill-rule="evenodd"/><path d="M3323.69 1196.93C3323.52 1197.83 3323.12 1198.66 3322.54 1199.37L3294.5 1233.61C3293.4 1235.04 3291.71 1235.87 3289.91 1235.85 3288.56 1235.86 3287.25 1235.39 3286.22 1234.51 3283.74 1232.4 3283.42 1228.66 3285.51 1226.16L3312.31 1193.35C3312.52 1193.09 3312.67 1192.78 3312.74 1192.45L3316.95 1171.76C3315.59 1170.72 3314.42 1169.45 3313.5 1168L3308.8 1191.11 3282.32 1223.52C3278.79 1227.79 3279.35 1234.12 3283.57 1237.69 3287.79 1241.22 3294.06 1240.64 3297.57 1236.4 3297.62 1236.34 3297.67 1236.28 3297.71 1236.22L3325.75 1201.98C3326.77 1200.74 3327.46 1199.26 3327.76 1197.69L3331 1181.95 3327.33 1179.3Z" fill="#F2F2F2" fill-rule="evenodd"/><path d="M3389.13 1142.47 3369.36 1135.96C3366.82 1130.11 3358.23 1110.29 3357.8 1109.45 3354.63 1103.68 3348.57 1100.06 3341.97 1100 3339.34 1100 3336.75 1100.6 3334.39 1101.74L3306.31 1112.74C3303.79 1113.75 3301.79 1115.74 3300.77 1118.25L3290.72 1142.26C3289.71 1144.8 3289.76 1147.63 3290.86 1150.14 3291.89 1152.53 3293.85 1154.4 3296.29 1155.33 3297.49 1155.81 3298.77 1156.07 3300.06 1156.07 3304.19 1156.14 3307.93 1153.62 3309.4 1149.77L3317.3 1129.84 3321.31 1128.31C3321.32 1128.31 3321.33 1128.31 3321.34 1128.32 3321.34 1128.32 3321.34 1128.33 3321.34 1128.33L3315.48 1156.82C3314.83 1161.27 3316.19 1165.77 3319.19 1169.12L3319.19 1169.12 3349.73 1191.04 3349.73 1229.5C3349.64 1234.78 3353.55 1239.28 3358.81 1239.95 3364.36 1240.5 3369.31 1236.46 3369.86 1230.93 3369.89 1230.6 3369.91 1230.28 3369.91 1229.95L3369.91 1185.99C3369.95 1182.81 3368.44 1179.8 3365.85 1177.93L3347.46 1164.52 3349.72 1153.3 3350.56 1148.85 3354.07 1130.59C3354.32 1129.48 3353.62 1128.38 3352.51 1128.13 3351.39 1127.89 3350.29 1128.58 3350.04 1129.69 3350.03 1129.74 3350.02 1129.78 3350.02 1129.83L3346.55 1148.06 3343.15 1165C3342.99 1165.79 3343.31 1166.59 3343.96 1167.06L3363.44 1181.27C3364.94 1182.37 3365.81 1184.12 3365.77 1185.98L3365.77 1229.71C3365.82 1232.6 3363.83 1235.12 3361 1235.76 3357.77 1236.4 3354.63 1234.31 3353.98 1231.1 3353.91 1230.72 3353.87 1230.34 3353.87 1229.95L3353.87 1189.98C3353.87 1189.32 3353.55 1188.7 3353.01 1188.32L3321.61 1165.77C3319.63 1164.34 3318.67 1161.9 3319.16 1159.52L3326.15 1125.45C3326.38 1124.34 3325.66 1123.25 3324.54 1123.02 3324.16 1122.94 3323.76 1122.98 3323.39 1123.11L3314.97 1126.31C3314.42 1126.52 3313.99 1126.94 3313.78 1127.48L3305.55 1148.3C3304.69 1150.56 3302.49 1152.03 3300.06 1151.95 3299.28 1151.95 3298.51 1151.79 3297.79 1151.49 3296.38 1150.95 3295.24 1149.87 3294.64 1148.48 3293.99 1147 3293.96 1145.32 3294.55 1143.82L3304.58 1119.81C3305.18 1118.33 3306.35 1117.16 3307.83 1116.56L3336.07 1105.5C3337.9 1104.6 3339.92 1104.12 3341.97 1104.12 3347.04 1104.17 3351.7 1106.94 3354.16 1111.36 3354.54 1112.16 3361.42 1128.01 3365.95 1138.46 3366.18 1139 3366.63 1139.41 3367.19 1139.58L3387.84 1146.38C3390.93 1147.44 3392.59 1150.79 3391.57 1153.89 3390.7 1156.29 3388.44 1157.9 3385.88 1157.95 3385.22 1157.93 3384.56 1157.83 3383.92 1157.65L3359.91 1149.68C3358.33 1149.09 3357.04 1147.92 3356.29 1146.4L3355.55 1144.7 3354.4 1150.76C3355.53 1152.02 3356.96 1152.98 3358.55 1153.57L3382.78 1161.6C3383.79 1161.89 3384.83 1162.04 3385.88 1162.06 3390.18 1162 3394 1159.29 3395.46 1155.26 3397.25 1149.99 3394.42 1144.26 3389.13 1142.47Z" fill="#F2F2F2" fill-rule="evenodd"/><path d="M3338.5 1024.5C3266.11 1024.5 3207.5 1082.88 3207.5 1155 3207.5 1227.12 3266.11 1285.5 3338.5 1285.5 3410.89 1285.5 3469.5 1227.12 3469.5 1155 3469.5 1155 3469.5 1155 3469.5 1155 3469.5 1082.88 3410.89 1024.5 3338.5 1024.5 3338.5 1024.5 3338.5 1024.5 3338.5 1024.5ZM3441.92 1155C3441.92 1177.67 3434.34 1199.64 3420.55 1217.5L3275.76 1073.27C3321.26 1038.58 3386.07 1047.51 3420.55 1092.5 3434.34 1110.36 3441.92 1132.33 3441.92 1155ZM3235.08 1155C3235.08 1132.33 3242.66 1110.36 3256.45 1092.5L3401.24 1236.73C3356.08 1271.42 3290.93 1262.83 3256.45 1217.5 3242.66 1199.64 3235.08 1177.67 3235.08 1155L3235.08 1155Z" stroke="#F2F2F2" stroke-width="3.4375" stroke-miterlimit="8" fill="#FF0000" fill-rule="evenodd"/></g></svg>